# xmcd CD database file
#
# Track frame offsets:
#	150
#	13992
#	25185
#	39107
#	57300
#	70252
#	83565
#	96272
#	107527
#	121757
#	140200
#	151700
#	162305
#	174452
#	191022
#	209027
#
# Disc length: 2971 seconds
#
# Revision: 1
# Processed by: cddbd v1.5.2PL0 Copyright (c) Steve Scherf et al.
# Submitted via: CDex 1.70beta2
#
DISCID=d40b9910
DTITLE=AA.VV - Express Yourself - Charly's Funky Grooves Vol.1
DYEAR=1997
DGENRE=Funk
TTITLE0=Skull Snaps - It's A New Day (Woods) (1973)
TTITLE1=Sonny Jones - Sissy Walk, Pt.1 (Bocage-Scramuzza) (1969)
TTITLE2=The Backyard Heavies - Soul Junction (Branch-Walker-Russell) (1970)
TTITLE3=S.O.U.L. - Express Yourself (Wright) (1971)
TTITLE4=Eddie Bo and The Soul Finders - We're Doing It (Thang), Pt.1 (Bocage) (1970)
TTITLE5=The Untouchable Machine Shop - Machine Shop, Pt.1 (Denmark-Neves) (1973)
TTITLE6=Maceo and All The King's Men - Got To Getcha (Maceo) (1970)
TTITLE7=Eddie Bo - If It's Good To You (It's Good For You), Pt.1 (Bocage-Scramuzza) (1969)
TTITLE8=Mary Jane Hooper - I've Got Reasons (Bocage-Scramuzza) (1969)
TTITLE9=Young-Holt Unlimited - Hey Pancho (Young-Holt) (1973)
TTITLE10=Sonny Jones - Sissy Walk, Pt.2 (Bocage-Scramuzza) (1969)
TTITLE11=Ann Sexton - You're Losing Me (Sexton) (1974)
TTITLE12=The Backyard Heavies - Just Keep On Truckin (Branch-D'Arcy) (1972)
TTITLE13=Vic Pitts Feat. Omar Dupree - Loose Boodie (Dupree-Patterson-Pitts) (1974)
TTITLE14=S.O.U.L. - Burning Spear (Evans) (1971)
TTITLE15=Eddie Bo and The Soul Finders - We're Doing It (Thang), Pt.2 (Bocage) (1970)
EXTD=YEAR: 1997
EXTT0=
EXTT1=
EXTT2=
EXTT3=
EXTT4=
EXTT5=
EXTT6=
EXTT7=
EXTT8=
EXTT9=
EXTT10=
EXTT11=
EXTT12=
EXTT13=
EXTT14=
EXTT15=
PLAYORDER=
